<!DOCTYPE svg PUBLIC "-//W3C//DTD SVG 1.1//EN" "http://www.w3.org/Graphics/SVG/1.1/DTD/svg11.dtd">
<!-- Uploaded to: SVG Repo, www.svgrepo.com, Transformed by: SVG Repo Mixer Tools -->
<svg version="1.1" id="Icons" xmlns="http://www.w3.org/2000/svg" xmlns:xlink="http://www.w3.org/1999/xlink" viewBox="0 0 32 32" xml:space="preserve" width="800px" height="800px" fill="#2dd4bf">
<g id="SVGRepo_bgCarrier" stroke-width="0"/>
<g id="SVGRepo_tracerCarrier" stroke-linecap="round" stroke-linejoin="round" stroke="#CCCCCC" stroke-width="0.064"/>
<g id="SVGRepo_iconCarrier"> <style type="text/css"> .st0{fill:none;stroke:#2dd4bf;stroke-width:2;stroke-linecap:round;stroke-linejoin:round;stroke-miterlimit:10;} </style> <polygon points="20,2.6 20,8 25.4,8 "/> <g> <path d="M16,19c-0.6,0-1,0.4-1,1v2c0,0.6,0.4,1,1,1s1-0.4,1-1v-2C17,19.4,16.6,19,16,19z"/> <path d="M16,13c-1.1,0-2,0.9-2,2v1h4v-1C18,13.9,17.1,13,16,13z"/> <path d="M23.5,10H19c-0.6,0-1-0.4-1-1V2H7C6.4,2,6,2.4,6,3v26c0,0.6,0.4,1,1,1h18c0.6,0,1-0.4,1-1V12.5C26,11.1,24.9,10,23.5,10z M22,25c0,0.6-0.4,1-1,1H11c-0.6,0-1-0.4-1-1v-8c0-0.6,0.4-1,1-1h1v-1c0-2.2,1.8-4,4-4s4,1.8,4,4v1h1c0.6,0,1,0.4,1,1V25z"/> </g> </g>
</svg>