<svg width="281" height="46" viewBox="0 0 281 46" fill="none" xmlns="http://www.w3.org/2000/svg">
<path d="M79.7484 10.43V35H73.7634V20.265L68.2684 35H63.4384L57.9084 20.23V35H51.9234V10.43H58.9934L65.8884 27.44L72.7134 10.43H79.7484ZM82.8623 25.2C82.8623 23.1933 83.2357 21.4317 83.9823 19.915C84.7523 18.3983 85.7907 17.2317 87.0973 16.415C88.404 15.5983 89.8623 15.19 91.4723 15.19C92.849 15.19 94.0507 15.47 95.0773 16.03C96.1273 16.59 96.9323 17.325 97.4923 18.235V15.47H103.477V35H97.4923V32.235C96.909 33.145 96.0923 33.88 95.0423 34.44C94.0157 35 92.814 35.28 91.4373 35.28C89.8507 35.28 88.404 34.8717 87.0973 34.055C85.7907 33.215 84.7523 32.0367 83.9823 30.52C83.2357 28.98 82.8623 27.2067 82.8623 25.2ZM97.4923 25.235C97.4923 23.7417 97.0723 22.5633 96.2323 21.7C95.4157 20.8367 94.4123 20.405 93.2223 20.405C92.0323 20.405 91.0173 20.8367 90.1773 21.7C89.3607 22.54 88.9523 23.7067 88.9523 25.2C88.9523 26.6933 89.3607 27.8833 90.1773 28.77C91.0173 29.6333 92.0323 30.065 93.2223 30.065C94.4123 30.065 95.4157 29.6333 96.2323 28.77C97.0723 27.9067 97.4923 26.7283 97.4923 25.235ZM113.792 18.235C114.376 17.325 115.181 16.59 116.207 16.03C117.234 15.47 118.436 15.19 119.812 15.19C121.422 15.19 122.881 15.5983 124.187 16.415C125.494 17.2317 126.521 18.3983 127.267 19.915C128.037 21.4317 128.422 23.1933 128.422 25.2C128.422 27.2067 128.037 28.98 127.267 30.52C126.521 32.0367 125.494 33.215 124.187 34.055C122.881 34.8717 121.422 35.28 119.812 35.28C118.459 35.28 117.257 35 116.207 34.44C115.181 33.88 114.376 33.1567 113.792 32.27V44.31H107.807V15.47H113.792V18.235ZM122.332 25.2C122.332 23.7067 121.912 22.54 121.072 21.7C120.256 20.8367 119.241 20.405 118.027 20.405C116.837 20.405 115.822 20.8367 114.982 21.7C114.166 22.5633 113.757 23.7417 113.757 25.235C113.757 26.7283 114.166 27.9067 114.982 28.77C115.822 29.6333 116.837 30.065 118.027 30.065C119.217 30.065 120.232 29.6333 121.072 28.77C121.912 27.8833 122.332 26.6933 122.332 25.2ZM137.547 18.725C138.247 17.6517 139.122 16.8117 140.172 16.205C141.222 15.575 142.389 15.26 143.672 15.26V21.595H142.027C140.534 21.595 139.414 21.9217 138.667 22.575C137.92 23.205 137.547 24.325 137.547 25.935V35H131.562V15.47H137.547V18.725ZM149.543 13.44C148.493 13.44 147.629 13.1367 146.953 12.53C146.299 11.9 145.973 11.13 145.973 10.22C145.973 9.28667 146.299 8.51667 146.953 7.91C147.629 7.28 148.493 6.965 149.543 6.965C150.569 6.965 151.409 7.28 152.063 7.91C152.739 8.51667 153.078 9.28667 153.078 10.22C153.078 11.13 152.739 11.9 152.063 12.53C151.409 13.1367 150.569 13.44 149.543 13.44ZM152.518 15.47V35H146.533V15.47H152.518ZM171.905 20.23V25.2H156.505V20.23H171.905ZM183.143 18.235C183.703 17.325 184.508 16.59 185.558 16.03C186.608 15.47 187.809 15.19 189.163 15.19C190.773 15.19 192.231 15.5983 193.538 16.415C194.844 17.2317 195.871 18.3983 196.618 19.915C197.388 21.4317 197.773 23.1933 197.773 25.2C197.773 27.2067 197.388 28.98 196.618 30.52C195.871 32.0367 194.844 33.215 193.538 34.055C192.231 34.8717 190.773 35.28 189.163 35.28C187.786 35.28 186.584 35.0117 185.558 34.475C184.531 33.915 183.726 33.18 183.143 32.27V35H177.158V9.1H183.143V18.235ZM191.683 25.2C191.683 23.7067 191.263 22.54 190.423 21.7C189.606 20.8367 188.591 20.405 187.378 20.405C186.188 20.405 185.173 20.8367 184.333 21.7C183.516 22.5633 183.108 23.7417 183.108 25.235C183.108 26.7283 183.516 27.9067 184.333 28.77C185.173 29.6333 186.188 30.065 187.378 30.065C188.568 30.065 189.583 29.6333 190.423 28.77C191.263 27.8833 191.683 26.6933 191.683 25.2ZM209.803 35.28C207.889 35.28 206.163 34.8717 204.623 34.055C203.106 33.2383 201.904 32.0717 201.018 30.555C200.154 29.0383 199.723 27.265 199.723 25.235C199.723 23.2283 200.166 21.4667 201.053 19.95C201.939 18.41 203.153 17.2317 204.693 16.415C206.233 15.5983 207.959 15.19 209.873 15.19C211.786 15.19 213.513 15.5983 215.053 16.415C216.593 17.2317 217.806 18.41 218.693 19.95C219.579 21.4667 220.023 23.2283 220.023 25.235C220.023 27.2417 219.568 29.015 218.658 30.555C217.771 32.0717 216.546 33.2383 214.983 34.055C213.443 34.8717 211.716 35.28 209.803 35.28ZM209.803 30.1C210.946 30.1 211.914 29.68 212.708 28.84C213.524 28 213.933 26.7983 213.933 25.235C213.933 23.6717 213.536 22.47 212.743 21.63C211.973 20.79 211.016 20.37 209.873 20.37C208.706 20.37 207.738 20.79 206.968 21.63C206.198 22.4467 205.813 23.6483 205.813 25.235C205.813 26.7983 206.186 28 206.933 28.84C207.703 29.68 208.659 30.1 209.803 30.1ZM234.083 29.925V35H231.038C228.868 35 227.176 34.475 225.963 33.425C224.749 32.3517 224.143 30.6133 224.143 28.21V20.44H221.763V15.47H224.143V10.71H230.128V15.47H234.048V20.44H230.128V28.28C230.128 28.8633 230.268 29.2833 230.548 29.54C230.828 29.7967 231.294 29.925 231.948 29.925H234.083Z" fill="black"/>
<rect y="3" width="40" height="40" rx="10" fill="#816DFC"/>
<rect x="18.7755" y="9.93884" width="2.04082" height="26.1224" fill="#D9D9D9"/>
<path d="M29.3888 11.6042L29.3888 12.2165C27.348 12.2165 27.6536 13.6963 26.9398 16.9104C26.7357 18.7471 26.296 21.9528 25.5112 23.2369C23.3911 26.7062 20.2054 26.9787 20.2054 26.9787L20.2054 26.0942C20.2054 26.0942 22.8585 25.4819 23.2663 22.8288C23.6742 20.1756 24.0823 13.2369 24.8987 12.8288C24.8987 12.8288 25.3071 12.0124 26.5316 11.6043C27.7561 11.1961 29.3888 11.6042 29.3888 11.6042Z" fill="#D9D9D9"/>
<path d="M10.2929 11.6042L10.2929 12.2165C12.3337 12.2165 12.0281 13.6963 12.7419 16.9104C12.946 18.7471 13.3857 21.9528 14.1705 23.2369C16.2906 26.7062 19.4763 26.9787 19.4763 26.9787L19.4763 26.0942C19.4763 26.0942 16.8232 25.4819 16.4154 22.8288C16.0075 20.1756 15.5994 13.2369 14.783 12.8288C14.783 12.8288 14.3746 12.0124 13.1501 11.6043C11.9256 11.1961 10.2929 11.6042 10.2929 11.6042Z" fill="#D9D9D9"/>
</svg>
