<?xml version="1.0" encoding="iso-8859-1"?>
<!-- Uploaded to: SVG Repo, www.svgrepo.com, Generator: SVG Repo Mixer Tools -->
<svg fill="#000000" height="800px" width="800px" version="1.1" id="Layer_1" xmlns="http://www.w3.org/2000/svg" xmlns:xlink="http://www.w3.org/1999/xlink" 
	 viewBox="0 0 512 512" xml:space="preserve">
<g>
	<g>
		<path d="M368.653,67.284h-45.338V51.834c0-9.141-7.411-16.553-16.553-16.553h-8.272C294.757,15.229,277.124,0,256.001,0
			c-21.126,0-38.76,15.229-42.491,35.282h-8.271c-9.142,0-16.553,7.411-16.553,16.553v15.449h-45.339
			c-39.278,0-71.635,31.487-71.635,70.765v317.32c0,31.201,25.785,56.631,56.985,56.631h254.604
			c31.201,0,56.986-25.431,56.986-56.631v-317.32C440.288,98.77,407.931,67.284,368.653,67.284z M230.778,68.387
			c5.546,0,10.724-2.778,13.792-7.399c3.011-4.537,3.595-10.258,1.577-15.302c-0.095-0.387-0.258-1.376-0.258-2.484
			c0-5.566,4.537-10.095,10.114-10.095s10.114,4.531,10.114,10.102c0,1.106-0.162,2.092-0.257,2.477
			c-2.019,5.044-1.435,10.767,1.577,15.305c3.068,4.622,8.245,7.399,13.792,7.399h8.986v7.725h-68.418v-7.727H230.778z
			 M383.302,478.895H128.698c-12.946,0-23.88-10.579-23.88-23.526v-317.32c0-21.024,17.505-37.66,38.529-37.66h47.031
			c2.691,5.518,8.325,8.828,14.86,8.828h101.523c6.535,0,12.17-3.311,14.86-8.828h47.031c21.024,0,38.529,16.635,38.529,37.66
			v317.32h0.001C407.182,468.315,396.248,478.895,383.302,478.895z"/>
	</g>
</g>
<g>
	<g>
		<path d="M374.077,124.666H137.924c-9.141,0-16.553,7.411-16.553,16.553v301.26c0,9.141,7.411,16.553,16.553,16.553h236.152
			c9.141,0,16.553-7.411,16.553-16.553v-301.26C390.629,132.078,383.218,124.666,374.077,124.666z M357.524,425.926H154.477V157.772
			h203.047V425.926z"/>
	</g>
</g>
<g>
	<g>
		<path d="M326.625,199.705H184.272c-9.142,0-16.553,7.411-16.553,16.553c0,9.142,7.411,16.553,16.553,16.553h142.353
			c9.142,0,16.553-7.411,16.553-16.553C343.178,207.117,335.767,199.705,326.625,199.705z"/>
	</g>
</g>
<g>
	<g>
		<path d="M326.625,246.053H184.272c-9.142,0-16.553,7.411-16.553,16.553s7.411,16.553,16.553,16.553h142.353
			c9.142,0,16.553-7.411,16.553-16.553S335.767,246.053,326.625,246.053z"/>
	</g>
</g>
<g>
	<g>
		<path d="M326.625,292.401H184.272c-9.142,0-16.553,7.411-16.553,16.553c0,9.142,7.411,16.553,16.553,16.553h142.353
			c9.142,0,16.553-7.411,16.553-16.553C343.178,299.812,335.767,292.401,326.625,292.401z"/>
	</g>
</g>
<g>
	<g>
		<path d="M272.553,345.369h-88.281c-9.142,0-16.553,7.411-16.553,16.553c0,9.141,7.411,16.553,16.553,16.553h88.281
			c9.141,0,16.553-7.411,16.553-16.553C289.106,352.78,281.695,345.369,272.553,345.369z"/>
	</g>
</g>
</svg>