<!DOCTYPE svg PUBLIC "-//W3C//DTD SVG 1.1//EN" "http://www.w3.org/Graphics/SVG/1.1/DTD/svg11.dtd">
<!-- Uploaded to: SVG Repo, www.svgrepo.com, Transformed by: SVG Repo Mixer Tools -->
<svg width="196px" height="196px" viewBox="-3.66 0 48.901 48.901" xmlns="http://www.w3.org/2000/svg" fill="#ffffff" stroke="#ffffff">
<g id="SVGRepo_bgCarrier" stroke-width="0"/>
<g id="SVGRepo_tracerCarrier" stroke-linecap="round" stroke-linejoin="round"/>
<g id="SVGRepo_iconCarrier"> <g id="Group_122" data-name="Group 122" transform="translate(-285.073 -203.057)"> <path id="Path_459" data-name="Path 459" d="M325.618,216.735h-5.86v-5.86h-6.015v5.86h-5.86v6.015h5.86v5.86h6.015v-5.86h5.86Z" fill="#2dd4bf" stroke="#2dd4bf" stroke-linecap="round" stroke-linejoin="round" stroke-width="2.074"/> <path id="Path_460" data-name="Path 460" d="M292.667,205.331l3.308-.978,5.516,13.58-2.162,1.508s-4.794-.488-3.363,3.334c.011.029.02.056.03.085a59.491,59.491,0,0,0,10.977,15.74c.024.021.046.039.07.058,3.091,2.665,4.29-2,4.29-2l2.162-1.508,10.838,9.871-2.06,2.766-.429.575-4.35,1.567-4.965.737q-1.883-1.337-3.781-2.962a77.016,77.016,0,0,1-20.908-29.979q-.865-2.34-1.471-4.572l2.37-4.313,3.24-3.3Z" fill="#2dd4bf" stroke="#2dd4bf" stroke-linecap="round" stroke-linejoin="round" stroke-width="2.592"/> </g> </g>
</svg>